<?xml version="1.0" encoding="utf-8"?>
<!-- Generator: Adobe Illustrator 21.1.0, SVG Export Plug-In . SVG Version: 6.00 Build 0)  -->
<svg version="1.1" id="Слой_1" xmlns="http://www.w3.org/2000/svg" xmlns:xlink="http://www.w3.org/1999/xlink" x="0px" y="0px"
	 viewBox="0 0 846 160" style="enable-background:new 0 0 846 160;" xml:space="preserve">
<path d="M109.4,127.6H57.2l-12.1,24H2L81.6,4.3h47.2l27.6,147.3h-43.3L109.4,127.6z M97.3,48.6L73.1,96.5h31.6L97.3,48.6z"/>
<path d="M175.3,4.3H216l-14.8,85.5c-2.7,15,2.3,24.7,17.8,24.7c15.5,0,24.5-9.6,27.2-24.7l15-85.5h41l-15,85.5
	c-7.5,43.1-39.1,63.3-75.2,63.3c-35.5,0-59.1-21.3-51.6-63.3L175.3,4.3z"/>
<polygon points="296.7,4.3 459.2,4.1 425.2,37.1 370.9,36.9 350.6,151.6 309.4,151.6 329.7,36.9 290.8,36.9 "/>
<path d="M456.4,153.1c-37.8,0-62.5-25.1-62.5-61.7c0-52.9,35.5-89.5,86.9-89.5c38.7,0,63.1,24.7,63.1,61.2
	C543.9,115.7,508.4,153.1,456.4,153.1z M462.6,115.1c25.5,0,40.8-22.2,40.8-47c0-17.6-9.8-28.2-27.8-28.2
	c-25.5,0-41.2,21.7-41.2,46.8C434.4,104,444.2,115.1,462.6,115.1z"/>
<path d="M625.6,2.8c37.2,0,59.4,19.2,59.8,50h-44.1c-3.1-7.7-10.7-12.1-22.2-12.1c-20.5,0-35.7,14.4-39.7,37
	c-4.4,25.3,6.1,38.9,30.3,38.9c14.2,0,25.9-6.7,34.3-19.4h-41.2l5.2-29.5h76.5l-7.1,39.7c-12.5,21.5-39.5,45.4-78,45.4
	c-45.4,0-69.4-30.9-61.7-75C545.6,33.8,580.5,2.8,625.6,2.8z"/>
<path d="M694.2,4.3h41l-25.9,147.3h-41.2L694.2,4.3z"/>
<path d="M773.6,153.1c-35.1,0-59.8-15.5-56.2-47.2h43.3c-0.8,9.4,3.8,15,13.8,15c7.7,0,13.4-3.6,13.4-10.5c0-21.1-61-16.9-61.2-59.8
	C726.4,19.6,751.5,2,785.9,2c33.2,0,56.4,17.1,53.3,45.8h-44.1c1.5-8.4-3.1-13.6-11.5-13.6c-7.3,0-12.5,4-12.5,10.7
	c0,20.1,61,19.2,61,62.1C832.1,133.3,810.2,153.1,773.6,153.1z"/>
</svg>
